<svg xmlns="http://www.w3.org/2000/svg" width="2430" height="2430"><path fill="#090a0f" d="M0 0h2430v2430H0z"/><path fill="#090a0f" d="m1330 282.7 5.9.8a759 759 0 0 1 64.5 10.9A893 893 0 0 1 1614 365l3 1.4a805 805 0 0 1 78.2 41.6 752 752 0 0 1 48 30.8l7.6 5A600 600 0 0 1 1793 475l1.7 1.3a608 608 0 0 1 28.9 23.7 863 863 0 0 1 30.4 27l1.6 1.4Q1870 542 1884 556l1.7 1.8q8.7 8.5 16.6 17.5 4.4 4.9 9 9.6 7.5 7.9 14.3 16.4l8.9 10.4A417 417 0 0 1 1952 633a930 930 0 0 1 83.3 125.4c42.4 74.8 73.2 155.7 117.5 410.4q0 3.2.4 6.5 1.2 18.7 1 37.6v3.5a839 839 0 0 1-13.2 154 902 902 0 0 1-79 249.9 785 785 0 0 1-40.1 75 752 752 0 0 1-30.8 48l-5 7.6a600 600 0 0 1-31.2 42.2l-1.3 1.7a608 608 0 0 1-23.7 28.9 863 863 0 0 1-27 30.4l-1.4 1.6Q1888 1870 1874 1884l-1.8 1.7a297 297 0 0 1-17.5 16.6q-4.9 4.4-9.6 9-8 7.6-16.7 14.6-3.8 3-7.6 6.6a264 264 0 0 1-18.2 15l-25.6 19.8c-15.6 12-32 22.6-48.3 33.4l-7.6 5a686 686 0 0 1-39.1 23.9c-79.2 45.3-164 78.5-416.1 123.3l-2.5.1q-23.7 1.2-47.5 1h-3.5a900 900 0 0 1-193.2-20.6q-24.4-5-48.3-11.5l-3.3-.9a933 933 0 0 1-151.6-56l-3-1.4a805 805 0 0 1-78.2-41.6 752 752 0 0 1-48-30.8l-7.6-5A600 600 0 0 1 637 1955l-1.7-1.3a608 608 0 0 1-28.9-23.7 863 863 0 0 1-20.4-18l-2.3-2-7.7-7-1.6-1.4Q560 1888 546 1874c-.8-1-.8-1-1.7-1.8a297 297 0 0 1-16.6-17.5q-4.4-4.9-9-9.6-7.6-8-14.6-16.7-3-3.8-6.6-7.6a264 264 0 0 1-14.9-18 966 966 0 0 1-47.5-65.2l-1.7-2.6a856 856 0 0 1-24.4-38l-1.7-3a1135 1135 0 0 1-28.3-51l-1.6-3a900 900 0 0 1-61.4-153l-1-3.3a915 915 0 0 1-38-218.7l-.1-2.5q-1.2-23.5-1-47v-3.5a860 860 0 0 1 17.3-176 916 916 0 0 1 15.9-69 868 868 0 0 1 91.7-220c9.8-17.9 21-35 32.4-52l1.7-2.5q12.9-19.5 26.9-38.2l1.4-2A924 924 0 0 1 527 576l1.4-1.6Q542 560 556 546l1.8-1.7q8.5-8.7 17.5-16.6 4.9-4.4 9.6-9 8-7.6 16.7-14.6 3.8-3 7.6-6.6a264 264 0 0 1 18-14.9 966 966 0 0 1 65.2-47.5l2.6-1.7a856 856 0 0 1 38-24.4l3-1.7a1135 1135 0 0 1 51-28.3l3-1.6a842 842 0 0 1 94.9-41.6l2.5-1a923 923 0 0 1 134.9-39l3-.6q30.7-6.5 61.8-10.8l2.4-.3 20.1-2.6c72.8-9 147.7-8 220.4 1.2"/><path fill="#00d3a9" d="M1216 597.8h2.2a514 514 0 0 1 72 3.7c87 11 173.3 39.9 299.8 122.5l2 1.5a500 500 0 0 1 38.8 32.8l12 11 2.1 2q11.8 10.5 22 22.4l10.4 11.2 4.7 5.1 1.5 1.6c3.5 3.8 3.5 3.8 3.4 6.4-1.3 2.8-3 3.8-5.7 5.5l-3 2-9.9 6.4-3.3 2.1-15 10.3-2 1.3-12.5 8.6-2.6 1.7-5.9 4.1a19 19 0 0 1-7-5l-1.6-1.7-1.8-2-1.8-2-5.8-6.3a336 336 0 0 0-24.5-24.6l-6.4-6a322 322 0 0 0-22.5-19.2A547 547 0 0 0 1398 705l-3.4-1.3a532 532 0 0 0-98.7-24.5 412 412 0 0 0-80-5.5h-8.9a386 386 0 0 0-52 2.8q-26.8 2.9-53 8.5l-3.6.8a526 526 0 0 0-257.6 137.5l-5.8 5.2q-8.6 7.5-16 16.1-3 3.6-6.3 7a329 329 0 0 0-19.5 22.8A530 530 0 0 0 689 1084l-.5 2a529 529 0 0 0-11 61.6l-1.5 10.5c-2.4 18.1-2.2 36.4-2.2 54.7v8.1q-.4 38.8 6 77.2l.4 2.4c4.3 27 10.2 53.6 18.8 79.5l1 3c23 69.8 58.8 136.4 108.8 190.6q2.8 3 5.5 6.2a363 363 0 0 0 36 36.3 344 344 0 0 0 24 20.7A528 528 0 0 0 1085 1741l2.8.7a680 680 0 0 0 40.2 8.3l2.3.4c26.5 4.6 53 6.1 79.8 6h10.9a430 430 0 0 0 86.7-7.7 699 699 0 0 0 37.3-7.7l2.2-.5c13.4-3.2 26.4-7.5 39.5-11.8l2.2-.8 4.2-1.4c4.7-1.5 4.7-1.5 6.9-1.5l-3-10 32.4-1h2.5q40.1-1.2 80.2-1.6h2.5l29.4-.4c-3 4-6.3 7-10.2 10l-3.8 3-2 1.4-10 8.1-15 12q-11.7 9.1-23 18.5a1365 1365 0 0 1-34.3 27.5l-6.3 5.3a30 30 0 0 1-10.4 6.2l-3-7a79 79 0 0 0-18 4.7l-2.3.8a547 547 0 0 1-44.4 12.7 535 535 0 0 1-62.8 12l-2.6.4a522 522 0 0 1-77 4.6h-9a562 562 0 0 1-71-3.8l-3.2-.4a586 586 0 0 1-108-24 613 613 0 0 1-187.7-98l-2-1.5a551 551 0 0 1-28.6-23.5q-9-7.6-17.4-16l-5.7-5.2a211 211 0 0 1-23.4-23.6q-3.1-3.7-6.6-7.2a332 332 0 0 1-20.2-23.6A581 581 0 0 1 680 1524l-1.3-2.2-8.7-15.8-1.4-2.6a590 590 0 0 1-40-94l-.7-2.3a615 615 0 0 1-25-108.7l-.5-2.7c-3.8-26.6-4.8-53-4.8-79.8v-2.5c0-24.6.5-48.9 4.1-73.3l1.2-9a473 473 0 0 1 11.6-61.6q4.4-19.5 10.5-38.5l1-3.3A613 613 0 0 1 724 840l1.5-2a515 515 0 0 1 32.8-38.8 338 338 0 0 1 35.5-36.3q3.7-3.1 7.2-6.6a332 332 0 0 1 23.6-20.2A584 584 0 0 1 913 676l3-1.6a529 529 0 0 1 122.2-51.4q5-1.3 10-3a441 441 0 0 1 30.8-8l3.7-.9a548 548 0 0 1 61.1-9.9c24.1-2.8 48-3.4 72.1-3.5"/><path fill="#12151e" d="m1401 250.6 2.8.5 8.1 1.6 2.6.5q6.8 1.4 13.5 3.3c21.9 6.5 44.4 5.3 67 5.3h423.5c48-.1 48-.1 69.5 2.2l3.1.3c50.3 5.5 100.4 25.5 132.9 65.7a209 209 0 0 1 40.7 100.4c4.1 27.7 3.6 55.6 3.5 83.5v18.6l-.1 80.8v75.9l-.1 159.6v2.1l-.1 67.6v18.3a293 293 0 0 0 8.4 78.3c22 85.3 24.2 178.5 3.1 385.9l-.5 2.8-1.6 8.1-.5 2.6q-1.4 6.8-3.3 13.5c-6.6 22-5.3 44.9-5.3 67.7v454c0 62.5-15.5 122.4-60.5 167.6-42.8 40.3-104.4 51-161 50.8h-201.6l-164-.2h-87.3c-27.3-.2-52.5 1.4-79 8.4-85.2 22.2-178.5 24.2-385.8 3.1l-2.8-.5-8.1-1.6-2.6-.5q-6.8-1.4-13.5-3.3c-21.9-6.5-44.4-5.3-67-5.3H511.6c-46.6.1-46.6.1-69.5-2.2l-4.7-.4c-44.3-4-85.4-22-118.3-51.6l-2-1.8c-6-5.7-11-12.5-16-19.2l-1.3-1.7c-30.4-41.5-38-95.4-37.8-145.5V1744l.2-162v-89.3c.2-27.3-1.4-52.5-8.4-79-22.1-84.9-24.1-177.8-3.1-384.8l.5-2.8 1.6-8.1.5-2.6q1.4-6.8 3.3-13.5c6.6-22 5.3-44.9 5.3-67.7v-454c0-15.4.5-30.5 3-45.8l.5-3.4c7-42.7 21.6-79.7 50.7-112.1l1.8-2c5.7-6 12.5-11 19.2-16l1.7-1.3c28.3-20.8 63-30.5 97.3-35.3l2.6-.4a326 326 0 0 1 51-2H849l68.7.1h18.6c27.3.2 52.5-1.4 79-8.4 85.2-22.2 178.5-24.2 385.8-3.1M321 323l-2.8 2.7c-49.4 51.3-50.6 125.7-50.4 192.4V610l.1 210 .1 134a35 35 0 0 0 4.3-10.6l2.2-7.4a874 874 0 0 1 15.7-48.8q16-45.6 36.8-89.2l1.4-3a823 823 0 0 1 43.8-82.6q12.4-20.8 26-40.8l1.7-2.7a850 850 0 0 1 33.2-46.6l2-2.7 5.9-7.6 1.6-2a569 569 0 0 1 17.8-22l7.2-8.6q5.9-7.1 12-13.9 3-3 5.8-6.4 7.6-8.6 15.6-17.1l1.8-2a965 965 0 0 1 25.3-26.2q5.9-5.9 12.1-11.3 3-2.6 5.8-5.5 4.7-4.8 9.8-9l7.5-6.9q6.7-6 13.8-11.7l9.7-8.3a464 464 0 0 1 25.5-20.4 767 767 0 0 1 35.6-26.5A798 798 0 0 1 708 375l2.8-1.7c59.2-34.9 121-64.2 186-86.6l2.5-.8a801 801 0 0 1 41.2-12.8l2-.6 5.5-1.6a42 42 0 0 0 7-2.9H816.7l-65.6-.1h-155l-81.3-.1c-69.6-.2-141.3 3.4-193.8 55.2m614.5-46.2-12.6 4q-6.3 1.9-12.3 4l-2.7.8a976 976 0 0 0-92.2 35.9 833 833 0 0 0-91 46.5 865 865 0 0 0-105 70.3q-11.7 8.7-22.8 18.2l-7.8 6.4A581 581 0 0 0 559 489l-2.7 2.5-12.4 11.4a834 834 0 0 0-25.9 25l-1.8 1.8a297 297 0 0 0-16.6 17.5q-4.6 5.2-9.5 10.1a260 260 0 0 0-15 17.2l-6.7 7.6a275 275 0 0 0-15.2 18.4A968 968 0 0 0 313 835l-.8 1.9q-15.6 37.6-28.3 76.2l-.6 2-3.5 11-3 9.3c-8.9 26.1-10.3 50.6-10.1 78V1420a217 217 0 0 0 10.1 74.5l4 12.6q1.9 6.3 4 12.3l.8 2.7a976 976 0 0 0 35.9 92.2 833 833 0 0 0 46.5 91 865 865 0 0 0 70.3 105q8.7 11.7 18.2 22.8l6.4 7.8a581 581 0 0 0 28.6 32.8l11.4 12.4q12.1 13.3 25 25.9l1.8 1.8q8.3 8.7 17.5 16.6 5.2 4.6 10.1 9.5a260 260 0 0 0 17.2 15l7.6 6.7a275 275 0 0 0 18.4 15.2A968 968 0 0 0 835 2117l1.9.8q37.6 15.6 76.2 28.3l2 .6 11 3.5 9.3 3c26.1 8.9 50.6 10.3 78 10.1H1420a217 217 0 0 0 74.5-10.1l12.6-4q6.3-1.8 12.3-4l2.7-.8q45.3-15.1 88.9-34.4l3.3-1.5a833 833 0 0 0 91-46.5 868 868 0 0 0 109.5-74 579 579 0 0 0 22.8-18.1 754 754 0 0 0 47-41.5 909 909 0 0 0 27.5-26.3l1.6-1.7q8.3-8 15.8-16.7l5-5.2q4.4-4.5 8.6-9.3 3-3.6 6.3-7a317 317 0 0 0 11.2-13.2l6.6-7.9q9-10.5 17.4-21.7l8.6-11a889 889 0 0 0 73.2-110.8 974 974 0 0 0 24.4-46 925 925 0 0 0 55.3-134.7l.6-2 3.5-11 3-9.3c9-26.2 10.3-50.7 10-78.2l.1-18v-389.8c0-24.8-.9-47-9.2-70.6q-2-5.2-3.4-10.7l-3-10-.7-2a810 810 0 0 0-18-51q-4.2-11.7-9.5-23.1-2.3-5.2-4.4-10.6a259 259 0 0 0-7.4-17l-5.2-11.4q-5.5-12.5-12-24.5l-6.6-12.8A866 866 0 0 0 2019 657l-1.6-2.3a799 799 0 0 0-29.3-39.5 579 579 0 0 0-18.2-22.8 753 753 0 0 0-38.4-43.8l-4.4-4.7a834 834 0 0 0-25-25.9l-1.8-1.8a297 297 0 0 0-17.5-16.6q-5.2-4.6-10.1-9.5a260 260 0 0 0-17.2-15l-7.6-6.7a275 275 0 0 0-18.4-15.2A968 968 0 0 0 1595 313l-1.9-.8q-37.6-15.6-76.2-28.3l-2-.6-11-3.5-9.3-3c-26.1-8.9-50.6-10.3-78-10.1H1010a217 217 0 0 0-74.5 10.1M1475 268q5.6 2.8 11.7 4.3l7.4 2.2A896 896 0 0 1 1632 327l3 1.4a823 823 0 0 1 82.6 43.8q20.9 12.4 40.8 26l2.7 1.7a850 850 0 0 1 46.7 33.2l2.6 2 7.6 5.9 2 1.6a569 569 0 0 1 22 17.8l8.6 7.2q7.1 5.9 13.9 12 3 3 6.4 5.8 8.6 7.6 17.1 15.6l2 1.8a965 965 0 0 1 26.2 25.3q5.9 5.9 11.3 12.1 2.6 3 5.5 5.8 4.8 4.7 9 9.8l6.9 7.5q6 6.7 11.7 13.8l8.3 9.7a464 464 0 0 1 20.4 25.5 767 767 0 0 1 26.5 35.6A925 925 0 0 1 2061 718l2 3.4a983 983 0 0 1 98 232.6h1l.4-447.7c0-23.6 0-46.9-3.4-70.3l-.5-3.3q-2.9-21.3-9.5-41.7l-.8-2.4A168 168 0 0 0 2107 321l-1.4-1.4c-42-41.7-104.3-51.8-161-51.7h-332.1zM268 1475v140.9l-.1 66.7v157.8l-.1 82.9c-.3 32.4-.3 32.4 2.2 64.7l.5 4 1.3 8.8.5 3c8 46.8 28.5 91.7 68 120 42.8 30 93.7 38.4 145 38.3h331.5l137.2-.1a35 35 0 0 0-10.6-4.3l-4.9-1.4-2.5-.8a956 956 0 0 1-233.6-103.8A909 909 0 0 1 612 1989l-2-1.6a569 569 0 0 1-22-17.8l-8.6-7.2q-7.1-5.8-13.9-12-3-3-6.4-5.8-8.6-7.6-17.1-15.6l-2-1.8a965 965 0 0 1-26.2-25.3q-5.9-5.9-11.3-12.2-2.6-3-5.5-5.7-4.8-4.7-9-9.8l-6.9-7.5q-6-6.7-11.7-13.8l-8.3-9.7a464 464 0 0 1-20.4-25.5 767 767 0 0 1-26.5-35.6A963 963 0 0 1 369 1712l-1.6-2.7-4-6.9-1.2-1.8q-9.4-16.4-17.9-33.3l-1.2-2.4a806 806 0 0 1-26.1-55.3l-5-10.8c-5-10.7-8.9-21.8-13-32.8l-1.3-3.5A926 926 0 0 1 269 1475zm1893 0-.6 2.3c-15 53-33.8 104.8-57.4 154.7l-1.4 3a821 821 0 0 1-43.8 82.6q-12.4 20.9-26 40.8l-1.7 2.7a850 850 0 0 1-33.2 46.7l-2 2.6-5.9 7.6-1.6 2a569 569 0 0 1-17.8 22l-7.2 8.6q-5.8 7.1-12 13.9-3 3-5.8 6.4-7.6 8.6-15.6 17.1l-1.8 2a965 965 0 0 1-25.3 26.2q-5.9 5.9-12.2 11.3-3 2.6-5.7 5.5-4.7 4.8-9.8 9l-7.5 6.9q-6.7 6-13.8 11.7l-9.7 8.3a464 464 0 0 1-25.5 20.4 806 806 0 0 1-31.7 23.7l-2.3 1.7a1001 1001 0 0 1-71.7 46.3l-3.4 2c-68 40-141.2 71.2-217 93.2l-2.4.7-4.6 1.4q-5 1.3-9.6 3.7l207.3.2h2.2l153.3.2h84.8c21.2.2 42.2 0 63.4-2.2l2.2-.2q16.6-2 32.8-6l2-.5c44.7-10.7 84-35.6 108.3-75a210 210 0 0 0 20.7-48.5l.6-2c8-26.7 9.7-56.4 9.6-84.1V1681l-.2-206z"/><path fill="#072523" d="M1110 1030c8.8 3.4 15.3 14 21 21q7.8 9.8 16 19.2l12 14.8c5.9-1 11.6-3 17.3-4.7 35.6-11 74.2-5.4 106.9 11.8a147 147 0 0 1 26.2 18.9c26 21.8 42.2 56.8 45.4 90.3A142 142 0 0 1 1311 1317l-2.3 2.3a136 136 0 0 1-51.7 29.7l48 1v40h-200v-20h-6c-4.9-2.5-7.3-4.8-9-10-.7-4.5-1-8.9 1-13.1l5-5.9 4.2-5.2 8.8-10.5q6.4-7.5 12.4-15.2 6.6-8.4 13.8-16.5l12-14.7q4.7-6 9.8-11.7 5.7-6.5 11-13.2 7-8.7 14.4-17.3 5.7-6.7 11-13.6 9-11.3 18.6-22.1c-1.7-4.2-4.7-7.3-7.6-10.6q-6.4-7.3-12.4-14.9l-7.3-8.7q-5.7-6.7-11-13.7a350 350 0 0 0-13.9-16.5 304 304 0 0 1-11.6-14.3q-5.1-6.6-10.7-12.8a331 331 0 0 1-13.3-16.2q-5.1-6.6-10.7-12.8-7.8-8.9-15-18.4l-5.2-6.3c-4.2-5.1-3.8-10.5-3.3-16.8 3.4-9 11.4-10 20-9"/><path fill="#00f3c3" d="M1110 1030c8.8 3.4 15.3 14 21 21q7 8.7 14.4 17.3 5.7 6.7 11 13.6 6.7 8.5 14 16.8 5.4 6.3 10.6 12.8l7.3 8.8q5.7 6.7 11 13.6a350 350 0 0 0 13.9 16.5q6 7 11.6 14.3a290 290 0 0 0 11 13.2c13.7 15.6 13.7 15.6 13.5 24-1 7-7.3 12.7-11.9 17.9l-9.8 12q-6.6 8.6-13.8 16.6a268 268 0 0 0-10.3 12.6q-6.6 8.3-13.7 16.4-5.3 6.1-10.3 12.6-6.6 8.3-13.7 16.4-6 7-11.6 14.3-6 7.7-12.6 15-5.5 6.4-10.6 13.3l174 1v40h-200v-20h-6c-4.9-2.5-7.3-4.8-9-10-.7-4.5-1-8.9 1-13.1l5-5.9 4.2-5.2 8.8-10.5q6.4-7.5 12.4-15.2 6.6-8.4 13.8-16.5l12-14.7q4.7-6 9.8-11.7 5.7-6.5 11-13.2 7-8.7 14.4-17.3 5.7-6.7 11-13.6 9-11.3 18.6-22.1c-1.7-4.2-4.7-7.3-7.6-10.6q-6.4-7.3-12.4-14.9l-7.3-8.7q-5.7-6.7-11-13.7a350 350 0 0 0-13.9-16.5 304 304 0 0 1-11.6-14.3q-5.1-6.6-10.7-12.8a331 331 0 0 1-13.3-16.2q-5.1-6.6-10.7-12.8-7.8-8.9-15-18.4l-5.2-6.3c-4.2-5.1-3.8-10.5-3.3-16.8 3.4-9 11.4-10 20-9"/><path fill="#072523" d="M1131 1102a49 49 0 0 1 11.6 12l2.4 3 14.4 17.3q5.7 6.7 11 13.6 6.6 8.4 13.8 16.5 6 7 11.6 14.3 8.3 10.4 17.2 20.3c-1.7 4.2-4.7 7.3-7.6 10.6q-6.4 7.3-12.4 14.9l-7.3 8.8a376 376 0 0 0-11.1 13.6q-6.4 8.2-13.3 16l-11 13.3-7.8 9.3-10.1 12.1-2.2 2.7-4.6 5.8-2.4 3-2.2 2.9c-2 2-2 2-6 2q-3.9-3.6-7-8l-2.4-2.9a142 142 0 0 1-27.6-58.1l-.6-2.8a142 142 0 0 1 19.3-103.3 170 170 0 0 1 31.3-34.3z"/><path fill="#081b1c" d="M1192.6 273.9h47.4q23.3 0 46.4 1.9l2.6.2 11.3 1a906 906 0 0 1 102.1 15.2c79.3 14.7 156 43 330.3 136.3l5.7 3.7a772 772 0 0 1 53.4 38.7 574 574 0 0 1 23 18.3q8 6.6 15.7 13.5l8.1 6.9q6.1 4.9 11.5 10.5 2.8 2.8 5.8 5.3 4.7 4 9.1 8.6 4.3 4.4 8.9 8.4 11.5 10 21.3 21.6l6.8 7q5.3 5.1 10.2 10.9l6.7 7.4 12 14q3 3.7 6 7 6.3 7.3 12.2 15l7.2 9C2012 703 2055.8 782.2 2114 935l.7 2.1a921 921 0 0 1 39.5 207l.2 2.3a523 523 0 0 1 1.8 50.5v19.4c0 28.3-.2 56.5-3.2 84.7l-.4 3.7-2.2 18.3-1.2 10a820 820 0 0 1-18.2 100l-.8 3.6c-17.9 75.7-46 149-128.7 296l-3.7 5.8a772 772 0 0 1-38.7 53.4 574 574 0 0 1-18.3 23q-6.6 8-13.5 15.7l-6.9 8.1q-4.9 6.1-10.5 11.5l-5.3 5.8q-4 4.7-8.6 9.1-4.4 4.3-8.4 8.9-10 11.5-21.6 21.3l-7 6.8q-5.2 5.3-10.9 10.2l-7.4 6.7-14 12q-3.7 3-7 6-7.3 6.3-15 12.2l-9 7.2c-68.7 55.6-147.8 99.5-296.9 156.4l-9 3c-16 5.4-32.5 9.3-48.8 13.3l-2 .5a951 951 0 0 1-68.9 14.3 519 519 0 0 1-37 5.6 866 866 0 0 1-116.1 6.8h-2.2a1056 1056 0 0 1-65-1.7 648 648 0 0 1-51.1-5.2 948 948 0 0 1-115.5-21.6c-78.5-18.6-155.5-50.3-285.9-126.2l-5.7-3.7a772 772 0 0 1-53.4-38.7 574 574 0 0 1-23-18.3q-8-6.6-15.7-13.5l-8.1-6.9q-6.1-4.9-11.5-10.5l-5.8-5.3q-4.7-4-9.1-8.6-4.3-4.4-8.9-8.4-11.5-10-21.3-21.6l-6.8-7q-5.3-5.2-10.2-10.9l-6.7-7.4-12-14q-3-3.7-6-7-6.3-7.3-12.2-15l-7.2-9c-55.6-68.7-99.5-147.8-156.4-296.8l-3.1-9.3c-4.6-14-8.1-28.4-11.7-42.6l-1.4-5.7A958 958 0 0 1 277 1300l-.3-2.6a930 930 0 0 1-1.4-145l.2-3.1a635 635 0 0 1 4.2-42.6l1.2-10.8a758 758 0 0 1 11.3-68.3A893 893 0 0 1 364 812l1.6-3.4A913 913 0 0 1 417 715l1.6-2.6a725 725 0 0 1 29-43c17-24.2 35.3-48.3 55.3-70l6.7-8q4.9-6.1 10.5-11.5 2.8-2.8 5.3-5.8 3.9-4.4 8.1-8.6 4-4 7.8-8.2 10.5-12.2 22.7-22.6 3.7-3.2 7-6.7 5.1-5.3 10.9-10.2l7.4-6.7 14-12q3.7-3 7-6 7.3-6.3 15-12.2l9-7.2A850 850 0 0 1 750 396.3c70.6-40.5 147.6-72.6 251-98.3l3-.7a928 928 0 0 1 84-15.3l3.6-.5q22.8-3.2 45.7-5.2l2-.2q26.6-2.3 53.3-2.2m-92.6 8.8-5.9.8a759 759 0 0 0-64.5 10.9A881 881 0 0 0 971 308l-2 .5a871 871 0 0 0-222 92.3c-17.9 9.8-35 21-52 32.4l-2.5 1.7q-19.5 12.9-38.2 26.9l-2 1.4A924 924 0 0 0 576 527l-1.6 1.4Q560 542 546 556c-.8 1-.8 1-1.7 1.8a297 297 0 0 0-16.6 17.5q-4.4 4.9-9 9.6-7.6 8-14.6 16.7-3 3.8-6.6 7.6a264 264 0 0 0-14.9 18 966 966 0 0 0-47.5 65.2l-1.7 2.6a856 856 0 0 0-24.4 38l-1.7 3a1135 1135 0 0 0-28.3 51l-1.6 3a854 854 0 0 0-41.6 94.9l-1 2.6C305 967.2 286.9 1050.2 277 1164l-.1 2.5a937 937 0 0 0-1 50.5c0 90.4 13.4 180.5 72.1 359l.8 2q26.7 64.6 63.2 124l1.9 3A904 904 0 0 0 527 1854l1.4 1.6Q542 1870 556 1884l1.8 1.7q8.5 8.7 17.5 16.6 4.9 4.4 9.6 9 8 7.6 16.7 14.6 3.8 3 7.6 6.6a264 264 0 0 0 18.2 15l25.6 19.8c15.6 12 32 22.6 48.3 33.4l7.6 5q17.8 11.7 36.2 22.2l3 1.7a986 986 0 0 0 185 81.3l3.8 1.2A888 888 0 0 0 1164 2153l2.5.1q23.7 1.2 47.5 1h3.5a905 905 0 0 0 191-20.1 844 844 0 0 0 209-70.6 844 844 0 0 0 77.7-41.4 752 752 0 0 0 48-30.8l7.6-5a600 600 0 0 0 42.2-31.2l1.7-1.3a608 608 0 0 0 28.9-23.7q10.4-9 20.4-18l2.3-2 7.7-7 1.6-1.4q14.5-13.5 28.5-27.5l1.7-1.8q8.7-8.5 16.6-17.5 4.4-4.9 9-9.6 7.6-8 14.6-16.7 3-3.8 6.6-7.6a264 264 0 0 0 15-18.2l19.8-25.6c12-15.6 22.6-32 33.4-48.3l5-7.6q11.7-17.8 22.2-36.2l1.7-3a923 923 0 0 0 91-218.7 746 746 0 0 0 24.3-118c14.6-97.6 11.4-197.2-16.6-348.8l-.6-3a784 784 0 0 0-16.5-58.9l-.8-2.4c-22-69.6-52-136.7-89.5-199.2l-1.2-2a792 792 0 0 0-26.2-40.8 712 712 0 0 0-27.6-38.8l-2-2.7-8.9-11.5q-7.4-9.7-15.5-19l-7-8.6a616 616 0 0 0-35.6-40 641 641 0 0 0-26-26.7 278 278 0 0 0-16.2-15.4q-4.9-4.3-9.6-8.9-8-7.6-16.7-14.6-3.8-3-7.6-6.6a264 264 0 0 0-18.2-15l-25.6-19.8c-15.6-12-32-22.6-48.3-33.4l-7.6-5q-17.8-11.7-36.2-22.2l-3-1.7c-79.1-45.3-164-78.5-326.8-113.8l-10-1.5a903 903 0 0 0-245.2-2.3"/><path fill="#053b34" d="M1267.4 1153.9c15 12.5 24.4 31 27.3 50.2a89 89 0 0 1-20.5 65.7 82 82 0 0 1-55.9 25.3 72 72 0 0 1-31.9-5.5c-3-.8-4.6 0-7.4 1.4 1.7-4 4.6-7.1 7.4-10.4q6.3-7 12-14.5 6.6-8.5 13.8-16.5 6-7 11.6-14.3 5.3-6.7 11-13.1c9.7-10.6 9.7-10.6 13.6-23.8-1.1-6.4-5.8-11.3-10-16q-6-7-11.8-14.3-6.8-8.6-14-16.8C1201 1138 1201 1138 1201 1136a84 84 0 0 1 66.4 17.9"/><path fill="#14141f" d="M483.4 261.9h277.3l217.3.1c-12.2 6.8-26.6 6.6-40.1 6.5H833.6l-86.3.1h-67.2l-165.3.1c-69.6 0-141.3 3.5-193.8 55.3l-2.5 2.5c-49 51-49.8 125.6-49.7 191.6V633l-.1 49v258.2c0 13.3-2 25-5.7 37.8h-1V593.5l-.1-2.1v-111c0-15.5.4-30.6 2.8-45.9l.6-3.4c7-42.7 21.6-79.7 50.7-112.1l1.8-2c5.7-6 12.5-11 19.2-16l1.7-1.3c28.3-20.8 63-30.5 97.3-35.3l2.6-.4c15-2 29.8-2.1 44.8-2.1"/><path fill="#0a0a0f" d="M2168 996c2 4.2 3 8 4 12.6l.5 2.6 1.7 8.7.6 3a956 956 0 0 1 15.4 107.6c5.1 56.3 5 114.2-.2 170.5l-.2 2.8A1073 1073 0 0 1 2169 1434h-1zm-1907 0h1v437c-2.9-5.7-3.9-11.8-5.2-18l-.4-2.2A981 981 0 0 1 238 1274l-.1-2.2c-1.1-17-1-34-1-51l-.1-9.8a840 840 0 0 1 4-89.4l.3-2.5q6.1-62.2 19.9-123.1m948.1-759.2h10q44.6-.3 89.3 4l2.5.3c41.5 4.1 82.4 11.1 123.1 19.9v1H996c3.9-2 7.4-2.9 11.6-3.7l2.3-.5 10.3-2A984 984 0 0 1 1156 238l2-.1c17-1.1 34-1 51.1-1M996 2168h438v1a1111 1111 0 0 1-135.5 21.2c-56 5-113.5 5-169.5-.2l-2.8-.2q-65.8-6.1-130.2-20.8z"/><path fill="#053b34" d="M1169 1149c4.2 1.6 6.5 4.6 9.2 8l1.4 1.7 6.8 8.2 8.8 10.8q8.7 10.7 17.8 21.3c-1.7 4.2-4.7 7.3-7.6 10.6q-6.4 7.3-12.4 14.9l-7.3 8.8a376 376 0 0 0-11.1 13.6c-6.2 8-12.5 16-19.6 23.1l-1.2-2.1-5-7.6a84 84 0 0 1-12.6-61.6 81 81 0 0 1 32.8-49.7"/><path fill="#091618" d="M2161 1462h1c.5 9.7-.9 17.8-3.7 27l-1.3 4a1009 1009 0 0 1-98.2 224.6q-12.4 20.9-26 40.8l-1.7 2.7a850 850 0 0 1-33.2 46.7l-2 2.6-5.9 7.6-1.6 2a569 569 0 0 1-17.8 22l-7.2 8.6q-5.8 7.1-12 13.9-3 3-5.8 6.4-7.6 8.6-15.6 17.1l-1.8 2a973 973 0 0 1-23.7 24.6l-2.2 2.2q-6 6-12.6 11.7-3 2.6-5.7 5.5-4.7 4.8-9.8 9l-7.5 6.9q-6.7 6-13.8 11.7l-9.7 8.3a464 464 0 0 1-25.5 20.4 806 806 0 0 1-31.7 23.7l-2.3 1.7a1001 1001 0 0 1-71.7 46.3l-3.4 2c-167.8 98.8-167.8 98.8-240.3 98h-6.3a46 46 0 0 1 10.6-4l4.2-1 2.2-.7a970 970 0 0 0 132-47.3l3.3-1.5a833 833 0 0 0 91-46.5 868 868 0 0 0 109.5-74 579 579 0 0 0 22.8-18.1 754 754 0 0 0 47.1-41.5q13.7-12.6 26.9-25.8l1.5-1.6q8-7.8 15.4-16.3l5-5.2q4.4-4.5 8.6-9.3 3-3.6 6.3-7a317 317 0 0 0 11.2-13.2l6.6-7.9q9-10.5 17.4-21.7l8.6-11a889 889 0 0 0 73.2-110.8 974 974 0 0 0 24.4-46A952 952 0 0 0 2161 1462M981 2168c10.4-.5 19.5.6 29.5 3a863 863 0 0 0 121.2 18.3 933 933 0 0 0 169.3-.3l2.8-.2q51.6-4.6 102.4-15l2.7-.7q6.3-1.2 12.4-2.7c9.4-2 18-2.8 27.7-2.4v1c-87.4 19.8-175.4 30.5-468 0zm468-1907v1a125 125 0 0 1-35.3-4l-16.7-3.4-3.4-.7A830 830 0 0 0 1274 239l-2-.1c-17-1.1-34-1-51.1-1l-10-.1a840 840 0 0 0-91.8 4.3 941 941 0 0 0-114 18.1A77 77 0 0 1 981 262v-1c87.4-19.8 175.4-30.5 468 0m719 720c2.2 3.8 3 8 4 12.2l.5 2.4 1.7 8.1.6 2.9c18.3 86.4 25.5 174.5-5.8 442.4h-1a123 123 0 0 1 3.9-34.9 895 895 0 0 0 17.3-115.6c5.1-56.3 5-114.2-.2-170.5l-.2-2.8a846 846 0 0 0-18.4-116.9 98 98 0 0 1-2.4-27.3m-1907 0h1a105 105 0 0 1-3 30 789 789 0 0 0-18.7 127.8l-.2 2.2-1.1 15-.1 2.2c-1.1 17-1 34-1 51l-.1 9.8a840 840 0 0 0 4.3 92c3.8 38 9.3 76 18.1 113.3 1.8 8 2.5 15.5 1.8 23.7-2.2-3.8-3-8-4-12.2l-.5-2.4-1.7-8.2-.6-2.8c-18.3-86.1-25.5-173.7 5.8-441.4"/><path fill="#081517" d="m1143 1335 1.5.7c10.6 5.3 21.1 10 32.5 13.3v1h-47a58 58 0 0 1 7.4-10.4q2.6-2.5 5.6-4.6"/><path fill="#132128" d="M1472 2162a62 62 0 0 1-34 6v-1c22.4-6 22.4-6 34-5m-514 0c11.9-1 22.6 2 34 5v1c-12 .9-22.5-1.7-34-5zm1209-724h1c.9 12-1.7 22.5-5 34h-1c-1-11.9 2-22.6 5-34M267 958h1c1 11.9-2 22.6-5 34h-1c-.9-12 1.7-22.5 5-34m1171-696c12-.9 22.5 1.7 34 5v1c-11.9 1-22.6-2-34-5zm-446 0v1c-22.4 6-22.4 6-34 5a62 62 0 0 1 34-6"/></svg>